{"title":"Rita Ora - I Will Never Let You Down [Music Video] 1080p [Sbyky]","uid":10249961,"size":71097078,"categoryP":"video","categoryS":"music_videos","magnet":"?xt=urn:btih:466ed663cfe8800b087811af6d1df4c10b6bc50b&amp;dn=Rita+Ora+-+I+Will+Never+Let+You+Down+%5BMusic+Video%5D+1080p+%5BSbyky%5D&amp;tr=udp%3A%2F%2Ftracker.openbittorrent.com%3A80&amp;tr=udp%3A%2F%2Fopen.demonii.com%3A1337&amp;tr=udp%3A%2F%2Ftracker.coppersurfer.tk%3A6969&amp;tr=udp%3A%2F%2Fexodus.desync.com%3A6969","seeders":1,"leechers":0,"uploader":"Sbyky","files":1,"time":1401337121,"description":"\n\nGeneral\nComplete name                            : Rita Ora - I Will Never Let You Down [Music Video] 1080p [Sbyky].MP4\nFormat                                   : MPEG-4\nFormat profile                           : Base Media\nCodec ID                                 : isom\nFile size                                : 67.8 MiB\nDuration                                 : 3mn 26s\nOverall bit rate mode                    : Variable\nOverall bit rate                         : 2 753 Kbps\nEncoded date                             : UTC 2014-03-27 17:20:50\nTagged date                              : UTC 2014-03-27 17:20:50\n\nVideo\nID                                       : 1\nFormat                                   : AVC\nFormat/Info                              : Advanced Video Codec\nFormat profile                           : &lt;a class=&quot;__cf_email__&quot; href=&quot;/cdn-cgi/l/email-protection&quot; data-cfemail=&quot;e9a1808e81a9a5ddc7d9&quot;&gt;[email&amp;#160;protected]&lt;/a&gt;&lt;script data-cfhash='f9e31' type=&quot;text/javascript&quot;&gt;\n/* &lt;![CDATA[ */!function(){try{var t=&quot;currentScript&quot;in document?document.currentScript:function(){for(var t=document.getElementsByTagName(&quot;script&quot;),e=t.length;e--;)if(t[e].getAttribute(&quot;data-cfhash&quot;))return t[e]}();if(t&amp;&amp;t.previousSibling){var e,r,n,i,c=t.previousSibling,a=c.getAttribute(&quot;data-cfemail&quot;);if(a){for(e=&quot;&quot;,r=parseInt(a.substr(0,2),16),n=2;a.length-n;n+=2)i=parseInt(a.substr(n,2),16)^r,e+=String.fromCharCode(i);e=document.createTextNode(e),c.parentNode.replaceChild(e,c)}t.parentNode.removeChild(t);}}catch(u){}}()/* ]]&gt; */&lt;/script&gt;\nFormat settings, CABAC                   : Yes\nFormat settings, ReFrames                : 2 frames\nCodec ID                                 : avc1\nCodec ID/Info                            : Advanced Video Coding\nDuration                                 : 3mn 26s\nBit rate                                 : 2 624 Kbps\nWidth                                    : 1 920 pixels\nHeight                                   : 1 080 pixels\nDisplay aspect ratio                     : 16:9\nFrame rate mode                          : Variable\nFrame rate                               : 24.000 fps\nMinimum frame rate                       : 24.000 fps\nMaximum frame rate                       : 24.194 fps\nColor space                              : YUV\nChroma subsampling                       : 4:2:0\nBit depth                                : 8 bits\nScan type                                : Progressive\nBits/(Pixel*Frame)                       : 0.053\nStream size                              : 64.6 MiB (95%)\nEncoded date                             : UTC 2014-03-27 17:20:50\nTagged date                              : UTC 2014-03-27 17:20:50\n\nAudio\nID                                       : 2\nFormat                                   : AAC\nFormat/Info                              : Advanced Audio Codec\nFormat profile                           : LC\nCodec ID                                 : 40\nDuration                                 : 3mn 26s\nBit rate mode                            : Variable\nBit rate                                 : 126 Kbps\nChannel(s)                               : 2 channels\nChannel positions                        : Front: L R\nSampling rate                            : 44.1 KHz\nCompression mode                         : Lossy\nStream size                              : 3.09 MiB (5%)\nEncoded date                             : UTC 2014-03-27 17:20:51\nTagged date                              : UTC 2014-03-27 17:20:51\n\nShared By Sbyky\n","torrent":{"xt":"urn:btih:466ed663cfe8800b087811af6d1df4c10b6bc50b","amp;dn":"Rita+Ora+-+I+Will+Never+Let+You+Down+%5BMusic+Video%5D+1080p+%5BSbyky%5D","amp;tr":["udp%3A%2F%2Ftracker.openbittorrent.com%3A80","udp%3A%2F%2Fopen.demonii.com%3A1337","udp%3A%2F%2Ftracker.coppersurfer.tk%3A6969","udp%3A%2F%2Fexodus.desync.com%3A6969"],"infoHash":"466ed663cfe8800b087811af6d1df4c10b6bc50b","infoHashBuffer":{"type":"Buffer","data":[70,110,214,99,207,232,128,11,8,120,17,175,109,29,244,193,11,107,197,11]},"announce":[],"urlList":[]}}